<svg xmlns="http://www.w3.org/2000/svg" viewBox="0 0 270.88 270.88"><defs><style>.cls-1{fill:#ed8a5f;opacity:0.3;}.cls-2,.cls-3{fill:none;stroke:#000;stroke-linejoin:round;stroke-width:3px;}.cls-3{stroke-linecap:round;}</style></defs><title>body-dot</title><g id="Layer_2" data-name="Layer 2"><g id="Layer_40" data-name="Layer 40"><circle class="cls-1" cx="135.44" cy="135.44" r="135.44"/><path class="cls-2" d="M130.89,140.44c-1.52,3.62-4.73,5.35-7.21,6.65-4.21,2.21-6,1.55-8.32,2.78-3,1.53-6.06,5.56-6.66,16.65"/><path class="cls-2" d="M140,140.44c1.52,3.62,4.73,5.35,7.21,6.65,4.21,2.21,6,1.55,8.33,2.78,2.94,1.53,6.06,5.56,6.66,16.65"/><path class="cls-3" d="M135.68,166.52c-1.23-2.24-5-6.07-6.2-8.31-.6-2.46,1.06-4.59,2.81-4.73a3.58,3.58,0,0,1,3.39,2.69"/><path class="cls-3" d="M135.68,166.52c1.24-2.24,5-6.07,6.2-8.31.6-2.46-1.06-4.59-2.81-4.73a3.58,3.58,0,0,0-3.39,2.69"/><ellipse class="cls-2" cx="135.68" cy="122.4" rx="13.75" ry="18.03"/></g></g></svg>