<svg xmlns="http://www.w3.org/2000/svg" viewBox="0 0 270.88 270.88"><defs><style>.cls-1{fill:#ed8a5f;opacity:0.3;}.cls-2,.cls-3{fill:none;stroke:#000;stroke-width:3px;}.cls-2{stroke-miterlimit:10;}.cls-3{stroke-linecap:round;stroke-linejoin:bevel;}</style></defs><title>performance-dot</title><g id="Layer_2" data-name="Layer 2"><g id="Layer_40" data-name="Layer 40"><circle class="cls-1" cx="135.44" cy="135.44" r="135.44"/><path class="cls-2" d="M166.59,143.11a31.09,31.09,0,0,1-4.32,15.81H108.61a31.15,31.15,0,1,1,58-15.81Z"/><circle class="cls-2" cx="135.92" cy="140.71" r="2.87"/><line class="cls-3" x1="147.82" y1="139.69" x2="139.46" y2="140.62"/><path class="cls-2" d="M160.36,144.54a24.74,24.74,0,0,1-4.57,14.38H115.1a24.91,24.91,0,0,1,20.34-39.29A24.92,24.92,0,0,1,160.36,144.54Z"/><line class="cls-2" x1="110.05" y1="144.54" x2="118.67" y2="144.54"/><line class="cls-2" x1="116.58" y1="129.04" x2="122.68" y2="135.14"/><line class="cls-2" x1="135.92" y1="120.11" x2="135.92" y2="128.73"/><line class="cls-2" x1="155.26" y1="129.04" x2="149.16" y2="135.14"/><line class="cls-2" x1="151.73" y1="144.54" x2="160.36" y2="144.54"/></g></g></svg>