<svg xmlns="http://www.w3.org/2000/svg" viewBox="0 0 270.88 270.88"><defs><style>.cls-1{fill:#0e323d;opacity:0.3;}.cls-2{fill:none;stroke:#000;stroke-miterlimit:10;stroke-width:3px;}</style></defs><title>serenity-dot</title><g id="Layer_2" data-name="Layer 2"><g id="Layer_40" data-name="Layer 40"><circle class="cls-1" cx="135.44" cy="135.44" r="135.44"/><path class="cls-2" d="M137.33,107.53a29.43,29.43,0,0,1-.19,20.73,30.52,30.52,0,0,1-12.92-36.79A29.45,29.45,0,0,1,137.33,107.53Z"/><path class="cls-2" d="M133.75,133.71a28.79,28.79,0,0,1,14.61,14.82A29.75,29.75,0,0,1,113,132.09,28.83,28.83,0,0,1,133.75,133.71Z"/><path class="cls-2" d="M155.54,122.94c-2,7.42-5.87,13.54-10.57,17.37-2.18-5.65-2.55-12.91-.59-20.33s5.87-13.54,10.57-17.37C157.14,108.26,157.51,115.52,155.54,122.94Z"/><path class="cls-2" d="M136.9,127.83a117.37,117.37,0,0,1,21,51.58"/></g></g></svg>