<svg xmlns="http://www.w3.org/2000/svg" viewBox="0 0 270.88 270.88"><defs><style>.cls-1{fill:#0e323d;opacity:0.3;}.cls-2,.cls-3{fill:none;stroke:#000;stroke-miterlimit:10;stroke-width:3px;}.cls-3{stroke-linecap:round;}</style></defs><title>wholeness-dot</title><g id="Layer_2" data-name="Layer 2"><g id="Layer_40" data-name="Layer 40"><circle class="cls-1" cx="135.44" cy="135.44" r="135.44"/></g><g id="Layer_42" data-name="Layer 42"><ellipse cx="165.33" cy="113.34" rx="1.24" ry="1.67" transform="translate(-34.1 133.57) rotate(-40.22)"/><ellipse cx="168.34" cy="110.79" rx="1.24" ry="1.67" transform="translate(-31.74 134.91) rotate(-40.22)"/><ellipse cx="171.35" cy="108.24" rx="1.24" ry="1.67" transform="translate(-29.38 136.25) rotate(-40.22)"/><ellipse cx="157.19" cy="105.21" rx="1.24" ry="1.67" transform="translate(-25.7 153.47) rotate(-48.58)"/><ellipse cx="159.79" cy="102.24" rx="1.24" ry="1.67" transform="translate(-22.6 154.42) rotate(-48.58)"/><ellipse cx="162.41" cy="99.29" rx="1.24" ry="1.67" transform="translate(-19.49 155.38) rotate(-48.58)"/><path class="cls-2" d="M130,147.2a6.65,6.65,0,0,1,.06.89,6.44,6.44,0,1,1-6.43-6.43,5.63,5.63,0,0,1,.71,0A6.45,6.45,0,0,1,130,147.2Z"/><path class="cls-2" d="M130,147.2a6.65,6.65,0,0,1,.06.89,6.44,6.44,0,1,1-6.43-6.43,5.63,5.63,0,0,1,.71,0l15-15.5a9.21,9.21,0,0,0-1.08-.56,16.79,16.79,0,0,0-21.49,6.67,20.4,20.4,0,1,0,21.87,23.4,16.66,16.66,0,0,0,6.67-23.91l-.17-.25Z"/><path class="cls-2" d="M161.74,114.44l-16.59,17.11L130,147.2a6.45,6.45,0,0,0-5.66-5.5l15-15.5L156.08,109Z"/><path class="cls-2" d="M170.82,106.27,161.36,115l-5.71-5.55,8.07-9.28a3.67,3.67,0,0,1,5.18-.14l1.92,1.87A3.09,3.09,0,0,1,170.82,106.27Z"/><line class="cls-3" x1="110.9" y1="155.3" x2="115.83" y2="160.23"/></g></g></svg>